<?xml version="1.0" encoding="utf-8"?>
<!-- Svg Vector Icons : http://www.onlinewebfonts.com/icon -->
<!DOCTYPE svg PUBLIC "-//W3C//DTD SVG 1.1//EN" "http://www.w3.org/Graphics/SVG/1.1/DTD/svg11.dtd">
<svg version="1.1" xmlns="http://www.w3.org/2000/svg" xmlns:xlink="http://www.w3.org/1999/xlink" x="0px" y="0px" viewBox="0 0 256 256" enable-background="new 0 0 256 256" xml:space="preserve">
<metadata> Svg Vector Icons : http://www.onlinewebfonts.com/icon </metadata>
<g><g><g><path fill="#000000" d="M79,10.6c-4.5,1.6-7.9,4.9-9.4,9.5c-0.6,1.9-0.7,5.2-0.7,25.5v23.3L44.8,69l-24.2,0.1l-2.3,1.2c-3,1.4-5.7,4.2-7.2,7.2L10,79.8v77.8v77.8l1.2,2.3c1.4,3,4.2,5.7,7.2,7.2l2.3,1.2h77.8h77.8l2.3-1.2c3-1.4,5.7-4.2,7.2-7.2l1.2-2.3l0.1-24.1l0.1-24.1l24.1-0.1l24.1-0.1l2.3-1.2c3-1.4,5.7-4.2,7.2-7.2l1.2-2.3V98.5V20.7l-1.2-2.3c-1.4-3-4.2-5.7-7.2-7.2l-2.3-1.2L158.3,10C89,9.9,80.9,9.9,79,10.6z M216.7,98.5v59.1h-14.8h-14.8l-0.1-38.9l-0.1-38.9l-1.2-2.3c-1.4-3-4.2-5.7-7.2-7.2l-2.3-1.2L137.4,69l-38.9-0.1V54.2V39.4h59.1h59.1V98.5L216.7,98.5z M157.6,157.6v59.1H98.4H39.3v-59.1V98.5h59.1h59.1V157.6L157.6,157.6z"/><path fill="#000000" d="M88,113.9c-1.7,0.8-3.2,2.4-3.9,4.1c-0.3,0.8-0.5,5.9-0.5,13v11.7l-12.4,0.1c-11.7,0.1-12.5,0.2-13.7,1.1c-3.1,2.4-3.2,2.4-3.2,13.6c0,11.1,0,11.2,3.2,13.6c1.2,0.9,2,1,13.7,1.1l12.4,0.1l0.1,12.4c0.1,11.7,0.2,12.5,1.1,13.7c2.4,3.1,2.4,3.2,13.6,3.2c11.1,0,11.2,0,13.6-3.2c0.9-1.2,1-2,1.1-13.7l0.1-12.4l12.4-0.1c11.7-0.1,12.5-0.2,13.7-1.1c3.1-2.4,3.2-2.4,3.2-13.6c0-11.1,0-11.2-3.2-13.6c-1.2-0.9-2-1-13.7-1.1l-12.4-0.1l-0.1-12.4c-0.1-11.7-0.2-12.5-1.1-13.7c-2.3-3.1-2.5-3.2-13-3.3C91.7,113.3,89.1,113.4,88,113.9z"/></g></g></g>
</svg>