<?xml version="1.0" encoding="utf-8"?>
<!-- Svg Vector Icons : http://www.onlinewebfonts.com/icon -->
<!DOCTYPE svg PUBLIC "-//W3C//DTD SVG 1.1//EN" "http://www.w3.org/Graphics/SVG/1.1/DTD/svg11.dtd">
<svg version="1.1" xmlns="http://www.w3.org/2000/svg" xmlns:xlink="http://www.w3.org/1999/xlink" x="0px" y="0px" viewBox="0 0 256 256" enable-background="new 0 0 256 256" xml:space="preserve">
<metadata> Svg Vector Icons : http://www.onlinewebfonts.com/icon </metadata>
<g><g><g><path fill="#000000" d="M10,128v118h118h118V128V10H128H10V128z M167.3,72.9v15.7h7.9h7.9V72.9V57.2h23.6h23.6v86.5v86.5h-23.6h-23.6v-15.7v-15.7h-7.9h-7.9v15.7v15.7H96.5H25.7v-86.5V57.2h70.8h70.8V72.9z"/><path fill="#000000" d="M167.3,120.1v15.7h7.9h7.9v-15.7v-15.7h-7.9h-7.9V120.1z"/><path fill="#000000" d="M88.9,143.5c-17,12.8-31,23.5-31.1,23.7c0,0.2,13.9,11,31.1,23.9l31.2,23.4v-15.7v-15.7h15.7h15.7v-15.7v-15.7h-15.7h-15.7L120,136l-0.1-15.6L88.9,143.5z"/><path fill="#000000" d="M167.3,167.3v15.7h7.9h7.9v-15.7v-15.7h-7.9h-7.9V167.3z"/></g></g></g>
</svg>